<?xml version="1.0" encoding="UTF-8" standalone="no"?>
<!-- Created with Inkscape (http://www.inkscape.org/) -->

<svg
   xmlns:dc="http://purl.org/dc/elements/1.1/"
   xmlns:cc="http://creativecommons.org/ns#"
   xmlns:rdf="http://www.w3.org/1999/02/22-rdf-syntax-ns#"
   xmlns:svg="http://www.w3.org/2000/svg"
   xmlns="http://www.w3.org/2000/svg"
   xmlns:sodipodi="http://sodipodi.sourceforge.net/DTD/sodipodi-0.dtd"
   xmlns:inkscape="http://www.inkscape.org/namespaces/inkscape"
   version="1.1"
   id="svg74"
   width="616.98877"
   height="844.13794"
   viewBox="0 0 616.98877 844.13794"
   sodipodi:docname="littleaircraftRed.svg"
   inkscape:version="0.92.4 (5da689c313, 2019-01-14)">
  <metadata
     id="metadata80">
    <rdf:RDF>
      <cc:Work
         rdf:about="">
        <dc:format>image/svg+xml</dc:format>
        <dc:type
           rdf:resource="http://purl.org/dc/dcmitype/StillImage" />
        <dc:title></dc:title>
      </cc:Work>
    </rdf:RDF>
  </metadata>
  <defs
     id="defs78" />
  <sodipodi:namedview
     pagecolor="#ffffff"
     bordercolor="#666666"
     borderopacity="1"
     objecttolerance="10"
     gridtolerance="10"
     guidetolerance="10"
     inkscape:pageopacity="0"
     inkscape:pageshadow="2"
     inkscape:window-width="1374"
     inkscape:window-height="868"
     id="namedview76"
     showgrid="false"
     inkscape:zoom="0.74513888"
     inkscape:cx="443.51316"
     inkscape:cy="422.06897"
     inkscape:window-x="66"
     inkscape:window-y="0"
     inkscape:window-maximized="1"
     inkscape:current-layer="svg74" />
  <path
     style="fill:#fe0000;stroke-width:1.09097958;fill-opacity:1"
     d="m 274.89883,806.34484 c -0.26194,-20.78621 -0.48977,-39.03449 -0.50629,-40.55173 -0.0165,-1.51724 0.30664,-12.44138 0.71815,-24.27586 0.85883,-24.69895 2.32475,-22.65209 2.37082,3.31034 0.0156,8.8 0.44317,16.66955 0.95011,17.48788 1.3549,2.18713 4.92561,1.06941 5.30797,-1.66151 0.35108,-2.50746 0.78099,-2.63543 15.64161,-4.65551 4.03839,-0.54896 7.59444,-1.2558 7.90232,-1.57076 0.59221,-0.60582 -1.33375,-31.53233 -2.40168,-38.56561 -0.61248,-4.0337 -0.74409,-4.13793 -5.22482,-4.13793 -2.52808,0 -18.86743,-1.7169 -36.30968,-3.81534 -35.56533,-4.27879 -34.59831,-3.92121 -35.97351,-13.30254 -0.79396,-5.41615 0.006,-11.0436 1.97119,-13.8569 0.80731,-1.15604 3.18651,-1.81021 7.14308,-1.96402 3.26292,-0.12684 17.33933,-0.70207 31.2809,-1.27829 13.94157,-0.57621 27.05964,-1.05792 29.15126,-1.07046 l 3.80295,-0.0228 -6.76115,-88.55172 c -5.90065,-77.28154 -7.13389,-90.16677 -9.68974,-101.24139 -1.61072,-6.97931 -3.60071,-13.27443 -4.42218,-13.98916 -0.82147,-0.71474 -3.51175,-1.64242 -5.97838,-2.06152 -10.72908,-1.82296 -14.35091,-6.77749 -11.97372,-16.37961 0.76777,-3.10127 1.94549,-9.61108 2.61713,-14.46626 1.3796,-9.97274 3.67037,-15.6363 6.72577,-16.62835 1.70631,-0.554 1.97547,-1.39695 1.50482,-4.71282 -0.31525,-2.22098 -0.85591,-7.76228 -1.20148,-12.314 -1.14867,-15.12979 -1.47711,-16.25391 -5.7547,-19.69638 -2.17424,-1.74976 -4.98801,-3.51081 -6.25282,-3.91345 -2.05622,-0.65459 -2.37821,-0.19618 -3.04179,4.33061 -0.71717,4.89238 -0.85752,5.05126 -4.17225,4.72268 -3.18553,-0.31577 -3.45335,-0.66541 -3.75577,-4.90319 -0.29333,-4.11048 -0.65449,-4.63046 -3.64045,-5.24138 -5.14718,-1.0531 -12.75301,-0.79948 -12.75301,0.42525 0,0.60689 -1.94157,1.10345 -4.3146,1.10345 h -4.31461 l -0.12954,4.68965 -0.12953,4.68966 -1.10237,-4.68966 c -1.02542,-4.36228 -1.35522,-4.68965 -4.7244,-4.68965 -2.36476,0 -3.62203,-0.52987 -3.62203,-1.52648 0,-1.79714 -3.26592,-2.85127 -8.89887,-2.87226 -3.33075,-0.0123 -4.04495,0.3746 -4.04495,2.19184 0,1.78654 -0.7191,2.2069 -3.77528,2.2069 -3.47565,0 -3.77528,0.26273 -3.77528,3.31034 0,1.82069 -0.48539,3.31035 -1.07865,3.31035 -0.59326,0 -1.07865,-1.48966 -1.07865,-3.31035 0,-3.12643 -0.2397,-3.31034 -4.31461,-3.31034 -3.84905,0 -4.31461,-0.2891 -4.31461,-2.67922 0,-2.89984 -0.78211,-3.08795 -18.06741,-4.34527 l -6.74157,-0.49037 v 18.10225 18.10226 h -3.77529 -3.77528 l -0.0343,-17.93103 c -0.0355,-18.5651 -0.72707,-21.79311 -4.66888,-21.79311 -1.5737,0 -1.76873,2.19015 -1.76873,19.86207 v 19.86207 h -3.77528 -3.77528 v -20.41379 c 0,-11.22759 -0.19255,-20.4138 -0.42789,-20.4138 -0.3465,0 -31.18157,10.14226 -125.86382,41.39908 -1.85448,0.6122 -3.15716,-1.66098 -6.39059,-11.15156 l -1.91287,-5.61456 40.06163,-13.33403 c 22.0339,-7.33373 52.31781,-17.39984 67.29759,-22.36914 l 27.23595,-9.03509 v -23.58149 -23.58151 l 2.63532,-0.67662 c 1.44944,-0.37215 3.14832,-0.3523 3.77528,0.0441 0.72176,0.45634 1.13996,7.01471 1.13996,17.87713 0,15.39087 0.18057,17.08549 1.7547,16.46756 0.96508,-0.37886 2.42126,-0.1229 3.23596,0.56877 1.24545,1.0574 1.48125,-1.56408 1.48125,-16.46756 0,-11.26199 0.41567,-17.98796 1.13997,-18.4459 0.62696,-0.39639 2.32584,-0.41624 3.77528,-0.0441 l 2.63532,0.67662 v 19.41213 19.41212 l 4.04494,-0.7278 c 2.22472,-0.40028 7.80674,-1.98598 12.40449,-3.52376 l 8.35955,-2.79596 v -5.42663 -5.42662 h 9.16854 c 8.61785,0 9.16854,0.14028 9.16854,2.33559 0,1.69153 0.52054,2.1888 1.88764,1.80328 1.03821,-0.29278 16.57079,-5.42027 34.51686,-11.39443 L 269.9263,306.29612 V 282.15295 258.00978 L 194.92883,152.18441 C 153.6802,93.980455 119.67569,45.677514 119.36323,44.84454 c -0.52228,-1.392348 7.39978,-9.538242 11.417,-11.739579 1.25935,-0.690088 16.91967,20.636559 70.65169,96.215389 57.86445,81.39148 69.07113,96.59363 69.26495,93.9598 0.12718,-1.72822 0.75212,-14.31463 1.38875,-27.9698 1.28256,-27.50962 3.90321,-51.59967 8.72758,-80.22725 5.33191,-31.639358 7.71319,-39.005878 15.74462,-48.706262 2.4239,-2.927571 4.08654,-3.81085 8.02912,-4.265452 l 4.97221,-0.573324 0.74768,-10.419882 c 0.41122,-5.730936 0.41768,-13.121828 0.0143,-16.424204 -0.66974,-5.483758 -0.54996,-6.004321 1.38171,-6.004321 2.03005,0 2.09417,0.66524 1.5957,16.551725 l -0.51933,16.551724 h 2.84318 2.8432 V 30.896552 C 318.46563,11.034483 318.85086,0 319.54428,0 c 0.69386,0 1.07865,11.218391 1.07865,31.448276 0,26.452516 0.24368,31.448276 1.53393,31.448276 2.21463,0 8.89425,8.37757 11.84455,14.855425 7.05973,15.500816 15.65489,77.250953 17.97596,129.144573 0.67863,15.17242 1.36847,27.73518 1.53297,27.91725 0.16451,0.18205 32.21937,-44.37476 71.23305,-99.01517 l 70.93394,-99.346186 3.88854,2.249395 c 2.13868,1.237167 5.51383,3.61419 7.50031,5.282275 l 3.61179,3.03288 -78.84774,110.808066 -78.84775,110.80807 v 21.72972 21.72972 l 18.47244,6.29842 c 17.61223,6.00511 18.93995,6.28949 28.51202,6.10696 l 10.03958,-0.19144 0.34192,3.54164 c 0.30816,3.19207 0.90084,3.73529 6.00483,5.50369 l 5.66292,1.96205 v -5.45005 -5.45004 h 9.11926 9.11925 l 0.31895,7.44827 0.31895,7.44828 7.01123,0.76296 c 3.85618,0.41963 9.57826,1.07844 12.71573,1.46403 l 5.70449,0.70105 -0.13391,-18.79585 c -0.0737,-10.33771 0.17898,-19.31376 0.5614,-19.94678 0.90128,-1.49181 4.55211,-1.48727 5.45474,0.007 0.38467,0.63675 0.63595,9.2011 0.55838,19.03192 -0.1227,15.54873 0.055,17.59999 1.36555,15.76646 0.93013,-1.30128 2.18537,-1.8413 3.28056,-1.41138 1.59684,0.62685 1.77396,-0.93082 1.77396,-15.60002 0,-11.20372 0.4045,-16.7102 1.29438,-17.62055 1.5697,-1.60578 4.8024,-1.73433 5.71293,-0.2272 0.36449,0.60333 0.64552,12.89855 0.62451,27.32273 l -0.0382,26.22579 65.77623,21.97911 c 58.94825,19.69754 65.7747,22.21624 65.76157,24.26348 -0.023,3.5897 -3.87527,15.54396 -4.95011,15.36116 -0.53231,-0.0905 -28.84436,-9.40087 -62.91569,-20.68966 -34.07133,-11.28862 -62.36922,-20.52491 -62.88421,-20.52491 -0.515,0 -0.79126,7.69727 -0.61394,17.10504 l 0.32241,17.10504 -4.04494,-10e-4 -4.04495,-0.002 v -18.64056 c 0,-15.94248 -0.24579,-18.73705 -1.69812,-19.30718 -0.93397,-0.36663 -2.41343,0.0651 -3.2877,0.9595 -1.29673,1.32655 -1.53036,4.88365 -1.26817,19.3087 l 0.32141,17.6826 -3.77528,-6e-5 -3.77528,-5e-5 0.31891,-18.08535 0.3189,-18.08535 -7.33014,0.46958 c -17.39125,1.11409 -18.65599,1.40759 -18.65599,4.3293 0,2.32354 -0.49846,2.67922 -3.75473,2.67922 -4.02836,0 -4.39459,0.61937 -5.21967,8.82758 -0.245,2.43729 -0.4519,1.52136 -0.56084,-2.48276 l -0.17263,-6.34482 h -4.3146 c -3.5955,0 -4.31461,-0.36782 -4.31461,-2.2069 0,-1.8314 -0.7191,-2.2069 -4.22638,-2.2069 -5.26988,0 -7.63879,0.89211 -7.63879,2.87668 0,1.05767 -1.34578,1.53712 -4.3146,1.53712 -4.26373,0 -4.31481,0.0488 -4.33113,4.13793 -0.0123,3.07793 -0.28437,3.71393 -1.06213,2.48276 -0.5751,-0.91035 -1.05306,-2.77242 -1.06214,-4.13794 -0.0139,-2.09859 -0.60068,-2.48275 -3.7918,-2.48275 -2.0764,0 -3.77528,-0.49656 -3.77528,-1.10345 0,-1.22054 -8.64542,-1.48634 -13.83165,-0.42525 -2.98596,0.61092 -3.34713,1.1309 -3.64045,5.24138 -0.30405,4.26054 -0.54027,4.56318 -3.5616,4.56318 -2.9663,0 -3.28091,-0.36781 -3.77529,-4.4138 -0.47954,-3.9246 -0.8296,-4.37184 -3.15835,-4.03528 -1.44047,0.20818 -4.42036,1.92558 -6.62198,3.81645 l -4.00296,3.43795 -1.33548,15.74762 -1.33547,15.74762 3.20389,3.06169 c 2.88179,2.75388 3.3954,4.33379 5.10856,15.71442 1.04756,6.95898 2.34798,13.84556 2.88983,15.30349 0.54184,1.45793 0.67403,4.34745 0.29374,6.42117 -0.78328,4.2712 -5.65447,7.51136 -13.13113,8.73441 -2.34566,0.38371 -4.7546,1.01755 -5.3532,1.40855 -1.6733,1.09295 -7.0538,24.09693 -7.52184,32.15916 -0.229,3.94483 -3.32917,44.10071 -6.88925,89.23529 -3.56008,45.13458 -6.31326,82.22615 -6.1182,82.4257 0.66621,0.68153 65.70992,2.89708 67.89453,2.31266 1.19809,-0.32051 1.92809,-0.32673 1.62221,-0.0138 -0.30587,0.3129 0.42471,1.5723 1.62352,2.79866 1.88172,1.92499 2.12464,3.34389 1.77727,10.38111 -0.62916,12.74541 0.8103,12.08611 -36.08051,16.52573 -17.13652,2.06229 -33.41367,3.75712 -36.17143,3.76628 l -5.01413,0.0167 -0.66794,7.44827 c -1.15159,12.84154 -3.76528,54.16299 -4.53673,71.72414 -0.40658,9.25517 -1.10073,16.82759 -1.54256,16.82759 -0.44183,0 -1.13812,-3.4104 -1.54732,-7.57865 l -0.74399,-7.57866 -4.48908,-1.35236 c -2.46899,-0.7438 -8.23039,-3.14926 -12.80311,-5.34545 l -8.31402,-3.99307 -0.31519,-6.65103 c -0.26008,-5.4883 -0.66972,-6.72018 -2.34323,-7.04655 -1.11543,-0.21753 -2.44283,0.27403 -2.94978,1.09237 -0.50694,0.81833 -0.92916,17.99823 -0.93824,38.17754 -0.0108,23.06621 -0.40673,36.68965 -1.06739,36.68965 -0.65236,0 -1.23151,-14.33252 -1.52716,-37.7931 z"
     id="path84"
     inkscape:connector-curvature="0" />
</svg>
